<?xml version="1.0" encoding="utf-8"?>
<!-- Generator: Adobe Illustrator 28.3.0, SVG Export Plug-In . SVG Version: 6.00 Build 0)  -->
<svg version="1.1" id="Layer_1" xmlns="http://www.w3.org/2000/svg" xmlns:xlink="http://www.w3.org/1999/xlink" x="0px" y="0px"
	 viewBox="0 0 493.16 163.08" style="enable-background:new 0 0 493.16 163.08;" xml:space="preserve">
<style type="text/css">
	.st0{fill:#FFF364;}
	.st1{fill:#FF9429;}
	.st2{fill:#F9F6F2;}
	.st3{fill:#E2DDD5;}
</style>
<g id="Layer_5">
	<polyline class="st0" points="112.55,84.4 49.97,84.4 62.45,95.24 20.56,105.93 62.45,115.4 5.41,128.67 58.98,136.24 
		51.31,142.48 104.74,141.42 112.55,84.4 201.52,56.74 	"/>
	<polyline class="st1" points="110.81,96.51 73.79,96.51 81.17,102.93 56.39,109.24 81.17,114.85 47.42,122.7 79.12,127.18 
		74.58,130.87 106.19,130.24 110.81,96.51 163.45,80.15 	"/>
</g>
<g id="Layer_2_00000156554832774379595830000004719688239361580697_">
	<path class="st2" d="M187.53,83.1l219.05-24.44l15.51,12.22c8.27,1.55,17.2,3.59,26.63,6.27c10.96,3.12,20.91,6.62,29.78,10.18
		c2.66,1.21,4.45,3.77,4.6,6.63c0.17,3.15-1.66,6.13-4.6,7.47c-4.45,2.3-9.47,4.61-15.04,6.77c-6.76,2.62-13.11,4.52-18.81,5.92
		c-90.57,12.22-181.13,24.44-271.7,36.67h-66.28l28.67-9.4l-4.23-2.35c-3.99,1.1-8.95,2.12-14.69,2.51
		c-4.46,0.3-11.69-0.13-11.69-0.13c-1.09-2.89-2.4-7.35-2.59-12.92c-0.18-5.52,0.81-10.02,1.7-12.97c4.4,0.25,9.19,0.7,14.31,1.48
		c5.04,0.76,9.68,1.72,13.9,2.76c0.64-0.46,2.01-1.57,2.85-3.53c1.03-2.39,0.65-4.53,0.48-5.28c-1.15-0.06-2.85-0.04-4.84,0.39
		c-3.34,0.72-3.72,1.78-6.91,2.73c-1.95,0.58-4.27,0.77-8.9,0.83c-1.86,0.02-3.72,0.05-5.57,0.07c-0.86-3.52-1.79-9.14-0.98-15.97
		c0.77-6.44,2.79-11.45,4.36-14.61c2.1,0,4.67,0.19,7.55,0.77c3.11,0.63,5.71,1.56,7.73,2.44V76.98c-4.79-1.67-9.59-3.34-14.38-5.01
		c-12.75-19.75-25.51-39.49-38.26-59.24c8.72-1.08,17.44-2.16,26.16-3.24l83.07,63.92l3.11,9.66L187.53,83.1z"/>
</g>
<g id="Layer_4">
	<path class="st3" d="M113.94,100.09l63.62-5.83l8.41,9.55L384.1,78.54l4.76,5.85l51.85-1.3l1.11,20.72l-299.3,36.1l-16.53-7.01
		c3-3.07,7.66-8.85,8.99-17.07c0.26-1.6,0.37-3.12,0.37-4.54c-1.39-0.09-3.45-0.06-5.83,0.56c-2.3,0.6-4.05,1.53-5.21,2.26
		c-4.86-3.44-9.72-6.87-14.58-10.31l4.21-3.73L113.94,100.09z"/>
	<path class="st3" d="M82.9,16.06c2.44-4.57,13.85-2.96,19.11-2.01l40,31.7l0.62,12.41l12.99,14.14c0.95,0.85,1.22,2.22,0.68,3.32
		c-0.49,0.99-1.57,1.6-2.71,1.52c-8.58-0.05-17.17-0.1-25.75-0.15l-14.6-4.68c-5.12-9.08-9.35-16.38-12.24-21.32
		c-3.84-6.56-7.31-13.34-11.2-19.87c-5.88-9.85-8.16-12.68-6.9-15.04L82.9,16.06z"/>
</g>
<g id="Layer_3">
	<path d="M106.68,150.79c8.49-2.84,16.97-5.67,25.46-8.51l-1.02-3.24c-3.57,0.99-7.94,1.91-12.97,2.37
		c-5.13,0.47-9.67,0.35-13.41,0.01c-1.16-2.9-2.62-7.58-2.72-13.49c-0.09-5.28,0.93-9.57,1.84-12.39
		c4.89,0.27,10.24,0.81,15.96,1.73c4.38,0.71,8.47,1.57,12.24,2.5c1.05-1.41,2.1-2.82,3.15-4.23v17.63l15.3,1.51l3.22-3.22
		l9.93-0.27l1.61-4.83l125.51-6.95l118.63-14.22V86.89h31.3V75l5.06,1.56v8.51l10.03-0.27v-5.53c2.67,0.66,5.47,1.44,8.37,2.39
		c5.33,1.73,10.11,3.7,14.32,5.69c2.89,1.08,4.84,3.8,4.92,6.84c0.09,3.19-1.89,6.12-4.92,7.26c-4.45,2.3-9.47,4.61-15.04,6.77
		c-6.76,2.62-13.11,4.52-18.81,5.92c-90.57,12.22-181.13,24.44-271.7,36.67h-66.28L106.68,150.79z"/>
	<path d="M131.3,111.35c-1.9,1-4.23,2-6.98,2.77c-6.22,1.72-11.66,1.38-15.14,0.85l0,0c-0.86-3.52-1.79-9.14-0.98-15.97
		c0.77-6.44,2.79-11.45,4.36-14.61c1.99,0,4.37,0.17,7.01,0.67c3.34,0.63,6.13,1.61,8.28,2.55c0.23,0.82,0.46,1.63,0.69,2.45
		l-11.96,0.69c-0.99,1.66-2.62,4.97-2.63,9.34c0,1.95,0.32,3.62,0.69,4.91c0.21,0.36,0.44,0.68,0.69,0.97
		c3.78,4.48,12.23,2.81,14.32,2.35c0.55,1.01,1.11,2.03,1.66,3.04L131.3,111.35z"/>
	<polygon points="113.24,72.3 75.2,12.74 101.36,9.5 184.43,73.43 187.53,83.1 184.69,83.1 181.76,77.24 102.02,14.06 82.9,16.06 
		84.11,19.08 	"/>
	<polygon points="84.11,19.08 92.8,17.92 135.36,64.71 133.63,69.04 128.65,71.52 113.24,72.3 110.89,66.97 129.08,66.43 
		129.08,63.83 	"/>
	<polygon points="110.34,66.99 110.89,66.97 113.24,72.3 	"/>
	<path d="M412.14,62.69l-15.85,7.02c-0.58,0.15-0.99,0.64-1.03,1.21c-0.04,0.63,0.39,1.23,1.03,1.39
		c8.63-0.77,17.26-1.54,25.88-2.31l-10.03-7.32V62.69z"/>
</g>
</svg>
